<svg id="c72112bd-cef0-4aa6-b30b-883a11ec0291" data-name="图层 1" xmlns="http://www.w3.org/2000/svg" width="194.88" height="48.43" viewBox="0 0 194.88 48.43"><title>cpchain_logo</title><path d="M127.11,111.39v-2.67l-.14,0a10.68,10.68,0,0,1-1.08.31c-.41.1-.83.18-1.25.25s-.85.13-1.28.17-.82.06-1.2.06a12.29,12.29,0,0,1-3.75-.54,7.16,7.16,0,0,1-4.7-4.48,11.45,11.45,0,0,1-.65-4,11.14,11.14,0,0,1,.7-4.11,8.44,8.44,0,0,1,1.91-2.95,7.88,7.88,0,0,1,2.85-1.78,10.35,10.35,0,0,1,3.54-.6,13.26,13.26,0,0,1,2.45.23,17.64,17.64,0,0,1,2.25.57l.14,0V89.5a.43.43,0,0,0-.31-.41l-.7-.2a12.15,12.15,0,0,0-1.19-.27c-.43-.07-.88-.13-1.35-.17s-.95-.06-1.42-.06a12.87,12.87,0,0,0-4.92.9,10.76,10.76,0,0,0-3.73,2.52,11,11,0,0,0-2.36,3.87,15.54,15.54,0,0,0,0,9.8,9.73,9.73,0,0,0,2.28,3.66,10.06,10.06,0,0,0,3.73,2.3,15,15,0,0,0,5.08.8,17.38,17.38,0,0,0,2.74-.21,11.59,11.59,0,0,0,2.35-.61Z" transform="translate(-48.73 -82.87)" fill="#001a36"/><path d="M142.77,89.52a11.44,11.44,0,0,0-2.22-.53c-.8-.11-2.55-.17-2.62-.17h-6.42v23h3v-9.36c.78.06,1.54.09,2.26.09a18.51,18.51,0,0,0,4.28-.45,9.83,9.83,0,0,0,3.22-1.35,6.12,6.12,0,0,0,2-2.24,6.65,6.65,0,0,0,.7-3.11,6.08,6.08,0,0,0-1.07-3.65A6.45,6.45,0,0,0,142.77,89.52Zm.7,7.74a3.43,3.43,0,0,1-1.22,1.39,6.46,6.46,0,0,1-2.21.88,15.61,15.61,0,0,1-3.32.3c-.36,0-.75,0-1.15,0s-.74-.05-1.08-.09v-8a.23.23,0,0,1,.23-.23h2.89a19.45,19.45,0,0,1,2.2.11,7.18,7.18,0,0,1,1.66.38,3.85,3.85,0,0,1,1.77,1.26,3.45,3.45,0,0,1,.62,2.12A4.41,4.41,0,0,1,143.47,97.27Z" transform="translate(-48.73 -82.87)" fill="#001a36"/><path d="M167.57,111.39v-2.67l-.14,0a10.66,10.66,0,0,1-1.08.31c-.41.1-.83.18-1.25.25s-.86.13-1.28.17-.82.06-1.2.06a12.29,12.29,0,0,1-3.75-.54,7.16,7.16,0,0,1-4.7-4.48,11.44,11.44,0,0,1-.65-4,11.14,11.14,0,0,1,.7-4.11,8.44,8.44,0,0,1,1.91-2.95A7.88,7.88,0,0,1,159,91.67a10.35,10.35,0,0,1,3.54-.6,13.27,13.27,0,0,1,2.45.23,17.64,17.64,0,0,1,2.25.57l.14,0v-2.4a.44.44,0,0,0-.32-.42l-.69-.19a12.15,12.15,0,0,0-1.19-.27c-.43-.07-.88-.13-1.35-.17s-.95-.06-1.42-.06a12.87,12.87,0,0,0-4.92.9,10.76,10.76,0,0,0-3.73,2.52,11,11,0,0,0-2.36,3.87,15.54,15.54,0,0,0,0,9.8,9.72,9.72,0,0,0,2.28,3.66,10.05,10.05,0,0,0,3.73,2.3,15,15,0,0,0,5.08.8,17.37,17.37,0,0,0,2.74-.21,11.58,11.58,0,0,0,2.35-.61Z" transform="translate(-48.73 -82.87)" fill="#001a36"/><path d="M174.84,111.82h.1V101.39h11.35v10.42h3v-23h-3v9.86H174.94V88.82h-3v23h2.88Z" transform="translate(-48.73 -82.87)" fill="#001a36"/><path d="M210.55,111.82h3.24l-.06-.14-9.28-22.79,0-.06h-2.54l0,.07L193,111.68l-.05.14h2.82l0-.07,2.7-6.8h9.39l2.7,6.8Zm-11-9.57.8-2c.9-2.26,1.86-4.8,2.85-7.56.95,2.72,1.89,5.26,2.8,7.56l.81,2Z" transform="translate(-48.73 -82.87)" fill="#001a36"/><polygon points="171.55 28.95 171.65 28.95 171.65 28.85 171.65 6.06 171.65 5.95 171.55 5.95 168.77 5.95 168.67 5.95 168.67 6.06 168.67 28.85 168.67 28.95 168.77 28.95 171.55 28.95" fill="#001a36"/><path d="M240.61,111.82h2.93v-23h-3v12.23c0,2.22.07,4.43.21,6.57-1.33-2.06-2.68-4.09-4-6l-8.56-12.71,0,0h-2.92v23h3V100.08c0-2.66-.07-5-.21-7.06,1.19,1.87,2.55,3.9,4,6l8.56,12.71Z" transform="translate(-48.73 -82.87)" fill="#001a36"/><path d="M114.36,127.09a3.2,3.2,0,0,1-1.1-.18,2.16,2.16,0,0,1-.82-.53,2.33,2.33,0,0,1-.52-.87,3.69,3.69,0,0,1-.18-1.21,3.56,3.56,0,0,1,.2-1.23,2.56,2.56,0,0,1,.55-.91,2.33,2.33,0,0,1,.84-.56,2.93,2.93,0,0,1,1.08-.19,5.49,5.49,0,0,1,.79.06,5.66,5.66,0,0,1,.87.2V120.6a.19.19,0,0,0-.13-.18,4.74,4.74,0,0,0-.67-.15,6.25,6.25,0,0,0-.94-.07,4.53,4.53,0,0,0-1.73.33,3.55,3.55,0,0,0-1.28.88,3.85,3.85,0,0,0-.78,1.32,4.92,4.92,0,0,0-.27,1.66,4.75,4.75,0,0,0,.25,1.59,3.32,3.32,0,0,0,.76,1.24,3.4,3.4,0,0,0,1.26.8,4.94,4.94,0,0,0,1.74.28,7,7,0,0,0,1-.07,6.58,6.58,0,0,0,.88-.18v-1.23a5.21,5.21,0,0,1-.86.2A6,6,0,0,1,114.36,127.09Z" transform="translate(-48.73 -82.87)" fill="#001a36"/><polygon points="71.95 40.84 71.93 40.84 69.86 37.48 68.27 37.48 71.23 42.14 71.23 45.28 72.66 45.28 72.66 42.14 75.61 37.48 74.03 37.48 71.95 40.84" fill="#001a36"/><path d="M131.25,124.7a1.72,1.72,0,0,0-.41-.37,2.44,2.44,0,0,0-.53-.25v0a1.76,1.76,0,0,0,.75-.7,1.93,1.93,0,0,0,.23-.93,1.86,1.86,0,0,0-.09-.57,1.83,1.83,0,0,0-.28-.54,2.15,2.15,0,0,0-.48-.46,2.54,2.54,0,0,0-.69-.33,4.58,4.58,0,0,0-1.4-.18h-2.71v7.8h2.84l.47,0,.38,0,.32-.06a3.1,3.1,0,0,0,1-.41,2.46,2.46,0,0,0,.61-.56,1.92,1.92,0,0,0,.32-.63,2.29,2.29,0,0,0,.09-.61,1.78,1.78,0,0,0-.1-.6A1.64,1.64,0,0,0,131.25,124.7Zm-4.19-3a.2.2,0,0,1,.2-.2h1l.52,0a2,2,0,0,1,.37.07.94.94,0,0,1,.54.36,1,1,0,0,1,.16.55,1,1,0,0,1-.14.53.91.91,0,0,1-.46.37,2.43,2.43,0,0,1-.87.12h-1.29Zm3,4.4a.82.82,0,0,1-.18.3,1.18,1.18,0,0,1-.32.24,1.86,1.86,0,0,1-.5.17,3,3,0,0,1-.46.07l-.64,0h-.93v-2.2h1.35l.58,0a2.06,2.06,0,0,1,.4.08,1.08,1.08,0,0,1,.57.37.94.94,0,0,1,.18.57A1.17,1.17,0,0,1,130.09,126.14Z" transform="translate(-48.73 -82.87)" fill="#001a36"/><path d="M134.74,124.75h3.11v-1.19h-3.11v-1.82a.19.19,0,0,1,.19-.19h3.43v-1.19h-5.05v7.8h5.26V127h-3.84Z" transform="translate(-48.73 -82.87)" fill="#001a36"/><path d="M144.25,124.92a2.67,2.67,0,0,0,1.4-.84,2.39,2.39,0,0,0,.08-2.68,2.26,2.26,0,0,0-1.06-.78,4,4,0,0,0-.87-.2,8.35,8.35,0,0,0-1.1-.07h-2.37v7.8h1.43v-3h1l2.12,3h1.71l-2.32-3.21Zm-.38-1.16a2.6,2.6,0,0,1-.57.13,6.67,6.67,0,0,1-.83,0h-.71v-2.2a.19.19,0,0,1,.19-.19h.83a5.59,5.59,0,0,1,.76,0,1.88,1.88,0,0,1,.51.14.9.9,0,0,1,.45.38,1.15,1.15,0,0,1,.13.56,1.26,1.26,0,0,1-.17.65A1.12,1.12,0,0,1,143.86,123.76Z" transform="translate(-48.73 -82.87)" fill="#001a36"/><path d="M154.75,120.55a4.48,4.48,0,0,0-.76-.15,8.62,8.62,0,0,0-1,0h-2.25v7.8h1.43v-3l.35,0h.38a5.9,5.9,0,0,0,1.49-.17,3.39,3.39,0,0,0,1.1-.48,2.12,2.12,0,0,0,.68-.77,2.18,2.18,0,0,0,.23-1,2.11,2.11,0,0,0-.43-1.36A2.44,2.44,0,0,0,154.75,120.55Zm.08,2.63a1,1,0,0,1-.34.4,1.85,1.85,0,0,1-.63.26,4.24,4.24,0,0,1-1,.09h-.39l-.31,0v-2.16a.19.19,0,0,1,.19-.19H153a7.13,7.13,0,0,1,.74,0,2.33,2.33,0,0,1,.5.1,1,1,0,0,1,.55.39,1.1,1.1,0,0,1,.16.59A1.26,1.26,0,0,1,154.83,123.18Z" transform="translate(-48.73 -82.87)" fill="#001a36"/><polygon points="114.47 40.7 110.86 40.7 110.86 37.48 109.43 37.48 109.43 45.28 110.86 45.28 110.86 41.89 114.47 41.89 114.47 45.28 115.9 45.28 115.9 37.48 114.47 37.48 114.47 40.7" fill="#001a36"/><polygon points="120.86 40.84 120.84 40.84 118.77 37.48 117.19 37.48 120.14 42.14 120.14 45.28 121.57 45.28 121.57 42.14 124.52 37.48 122.94 37.48 120.86 40.84" fill="#001a36"/><path d="M179.09,124.21a2.81,2.81,0,0,0-.8-.38q-.45-.14-.95-.24l-.59-.14a2,2,0,0,1-.5-.2,1,1,0,0,1-.34-.32.88.88,0,0,1-.13-.49.86.86,0,0,1,.38-.77,1.94,1.94,0,0,1,1.09-.26,5.53,5.53,0,0,1,1,.11,6.61,6.61,0,0,1,1.16.35v-1.09a.19.19,0,0,0-.12-.18,5.79,5.79,0,0,0-1-.27,6.57,6.57,0,0,0-1.25-.12,3.92,3.92,0,0,0-1.12.15,2.49,2.49,0,0,0-.87.45,2.13,2.13,0,0,0-.59.76,2.5,2.5,0,0,0-.22,1.08,2.08,2.08,0,0,0,.19.93,1.74,1.74,0,0,0,.5.61,2.44,2.44,0,0,0,.73.38,8.59,8.59,0,0,0,.87.24l.66.14a2.92,2.92,0,0,1,.56.19,1.07,1.07,0,0,1,.4.3.75.75,0,0,1,.15.48,1,1,0,0,1-.16.57,1.12,1.12,0,0,1-.42.36,2,2,0,0,1-.59.19,4,4,0,0,1-.66.06,5.55,5.55,0,0,1-1.13-.11,5.75,5.75,0,0,1-1.12-.36v1.21a3.57,3.57,0,0,0,1,.35,6.27,6.27,0,0,0,1.25.13,5.79,5.79,0,0,0,1.34-.15,3,3,0,0,0,1-.45,2,2,0,0,0,.66-.76,2.39,2.39,0,0,0,.23-1.09,2.18,2.18,0,0,0-.2-1A1.75,1.75,0,0,0,179.09,124.21Z" transform="translate(-48.73 -82.87)" fill="#001a36"/><rect x="132.94" y="37.48" width="1.43" height="7.8" fill="#001a36"/><path d="M189,127.09a3.2,3.2,0,0,1-1.1-.18,2.15,2.15,0,0,1-.82-.53,2.33,2.33,0,0,1-.52-.87,3.69,3.69,0,0,1-.18-1.21,3.56,3.56,0,0,1,.2-1.23,2.57,2.57,0,0,1,.55-.91,2.33,2.33,0,0,1,.85-.56,2.93,2.93,0,0,1,1.08-.19,5.49,5.49,0,0,1,.79.06,5.65,5.65,0,0,1,.87.2V120.6a.19.19,0,0,0-.13-.18,4.73,4.73,0,0,0-.67-.15,6.26,6.26,0,0,0-.94-.07,4.53,4.53,0,0,0-1.73.33,3.56,3.56,0,0,0-1.28.88,3.85,3.85,0,0,0-.78,1.32,4.92,4.92,0,0,0-.27,1.66,4.75,4.75,0,0,0,.25,1.59,3.32,3.32,0,0,0,.76,1.24,3.39,3.39,0,0,0,1.26.8,4.94,4.94,0,0,0,1.74.28,7,7,0,0,0,1-.07,6.58,6.58,0,0,0,.88-.18v-1.23a5.21,5.21,0,0,1-.86.2A6,6,0,0,1,189,127.09Z" transform="translate(-48.73 -82.87)" fill="#001a36"/><path d="M194.76,120.35l-3.09,7.8h1.52l.76-2h2.94l.76,2h1.51l-3.09-7.8Zm1.67,4.62h-2l.27-.69q.32-.82.73-2h0q.41,1.22.73,2Z" transform="translate(-48.73 -82.87)" fill="#001a36"/><path d="M201.93,126.76v-6.41H200.5v7.8h5.08V127h-3.45A.19.19,0,0,1,201.93,126.76Z" transform="translate(-48.73 -82.87)" fill="#001a36"/><path d="M213.14,127.09a3.2,3.2,0,0,1-1.1-.18,2.16,2.16,0,0,1-.82-.53,2.33,2.33,0,0,1-.52-.87,3.69,3.69,0,0,1-.18-1.21,3.56,3.56,0,0,1,.2-1.23,2.56,2.56,0,0,1,.55-.91,2.33,2.33,0,0,1,.85-.56,2.93,2.93,0,0,1,1.08-.19,5.48,5.48,0,0,1,.79.06,5.66,5.66,0,0,1,.87.2V120.6a.19.19,0,0,0-.13-.18,4.74,4.74,0,0,0-.67-.15,6.25,6.25,0,0,0-.94-.07,4.53,4.53,0,0,0-1.73.33,3.55,3.55,0,0,0-1.28.88,3.85,3.85,0,0,0-.78,1.32,4.91,4.91,0,0,0-.27,1.66,4.75,4.75,0,0,0,.25,1.59,3.32,3.32,0,0,0,.76,1.24,3.4,3.4,0,0,0,1.26.8,4.94,4.94,0,0,0,1.74.28,7,7,0,0,0,1-.07,6.58,6.58,0,0,0,.88-.18v-1.23a5.21,5.21,0,0,1-.86.2A6,6,0,0,1,213.14,127.09Z" transform="translate(-48.73 -82.87)" fill="#001a36"/><path d="M221.65,123.56h-3.42a.19.19,0,0,1-.19-.19v-3H216.6v7.8H218v-3.39h3.61v3.39h1.43v-7.8h-1.43Z" transform="translate(-48.73 -82.87)" fill="#001a36"/><path d="M227.51,120.35l-3.09,7.8h1.52l.76-2h2.94l.76,2h1.51l-3.09-7.8Zm1.67,4.62h-2l.27-.69q.32-.82.73-2h0q.41,1.22.73,2Z" transform="translate(-48.73 -82.87)" fill="#001a36"/><rect x="184.53" y="37.48" width="1.43" height="7.8" fill="#001a36"/><path d="M242.18,120.35v3.53q0,.69.07,2.21h0q-.52-.93-1.36-2.12l-2.56-3.63h-1.5v7.8h1.43v-3.53q0-.79-.07-2.22h0q.72,1.23,1.39,2.16l2.54,3.59h1.5v-7.8Z" transform="translate(-48.73 -82.87)" fill="#001a36"/><path d="M75.26,129.32A22.24,22.24,0,1,1,94,95.15,24.22,24.22,0,1,0,94,119,22.22,22.22,0,0,1,75.26,129.32Z" transform="translate(-48.73 -82.87)" fill="#008ccf"/><polygon points="26.4 5.57 16.76 15.09 24.67 11.42 42.21 24.02 26.4 5.57" fill="#b5b6b6"/><polygon points="33.57 11.79 35.75 9.78 44.36 19.78 33.57 11.79" fill="#b5b6b6"/><path d="M71,105.7s1.26.14,3.81-1.48a8.89,8.89,0,0,1,4.39-1.34c.69,0,1.4.12,2.94,1.4.08.07-3.07-.54-3.93,2a5.44,5.44,0,0,0,3,6.38,12,12,0,0,0,8.48.16,15.34,15.34,0,0,0,4.24-2.29c.41-.34-1,4.34-3.73,5.07s-14.7,1-14.7,1L71,112.8l-.8-5.83Z" transform="translate(-48.73 -82.87)" fill="#125083"/><path d="M61.3,93.22s-3.87,7.41.54,9.39c1.15.62,2.76.49,5-.86.74-.45,4-2.72,5.77-2.84a5.18,5.18,0,0,1,4.69,1.44c0,.12-3.5-.91-5.68,3.25-.45.91-2.18,7.54,4,10.83a15.21,15.21,0,0,0,11.16.91,17.69,17.69,0,0,0,6.34-4.08,24.08,24.08,0,0,0,2.31-2.31c0-.21-.21,5.89-5.6,11.94-.49.49-5.26,5.68-12.31,6.14-1,0-6,.12-9.55-1.32-.21-.16,10.08,2.24,18-3.64,0,.06-5.63,3.69-14.83,2.53-1.15-.21-7.62-1.75-8.48-7.29a6.55,6.55,0,0,1,2.82-6.2,5.12,5.12,0,0,1,4.06-.47c.54.12-.82-1.89-3-2.51a10.54,10.54,0,0,0-6,.91c-.49.16-4.41,2.1-4.9-1.89,0-.78.08-5.52,2.1-8.85A28.55,28.55,0,0,1,61.3,93.22Z" transform="translate(-48.73 -82.87)" fill="#008ccf"/></svg>